Coordinates
version=1
nRows=49
nColumns=12
inDegrees=yes

Units are S.I. units (second, meters, Newtons, ...)
Angles are in degrees

endheader
time	SC_y	SC_z	SC_x	AC_y	AC_z	AC_x	GH_y	GH_z	GH_yy	EL_x	PS_y
       0.0              -59.28         0.5037          79.91           39.3          8.377         -9.787           57.1          73.36           69.9           48.6          71.91
   0.01972              -59.27         0.5044          79.91           39.3          8.374         -9.785          57.11          73.36          69.91          48.61          71.91
   0.03944              -59.27         0.5051           79.9           39.3          8.371         -9.781          57.12          73.36          69.91          48.62          71.91
   0.05916              -59.27         0.5058           79.9           39.3          8.369         -9.778          57.13          73.36          69.92          48.64          71.92
   0.07888              -59.26         0.5066          79.89          39.29          8.366         -9.775          57.13          73.37          69.92          48.65          71.92
    0.0986              -59.26         0.5074          79.88          39.29          8.363         -9.771          57.14          73.37          69.93          48.67          71.93
    0.1183              -59.26         0.5083          79.87          39.29          8.359         -9.767          57.15          73.37          69.93          48.68          71.93
     0.138              -59.25         0.5093          79.86          39.29          8.356         -9.763          57.17          73.37          69.94           48.7          71.94
    0.1578              -59.25         0.5103          79.85          39.29          8.352         -9.758          57.18          73.37          69.95          48.72          71.95
    0.1775              -59.24         0.5114          79.84          39.29          8.348         -9.753          57.19          73.37          69.95          48.74          71.95
    0.1972              -59.24         0.5126          79.83          39.29          8.343         -9.748           57.2          73.37          69.96          48.76          71.96
    0.2169              -59.24         0.5139          79.82          39.29          8.338         -9.743          57.22          73.37          69.97          48.79          71.97
    0.2366              -59.23         0.5153          79.81          39.29          8.333         -9.737          57.23          73.37          69.98          48.81          71.98
    0.2564              -59.22         0.5168          79.79          39.28          8.328          -9.73          57.25          73.37          69.99          48.84          71.99
    0.2761              -59.22         0.5184          79.78          39.28          8.322         -9.723          57.27          73.38           70.0          48.87           72.0
    0.2958              -59.21         0.5202          79.76          39.28          8.315         -9.715          57.29          73.38          70.01           48.9          72.01
    0.3155               -59.2         0.5221          79.75          39.28          8.308         -9.707          57.31          73.38          70.02          48.94          72.02
    0.3352              -59.19         0.5241          79.73          39.28            8.3         -9.698          57.33          73.38          70.03          48.98          72.03
     0.355              -59.19         0.5264          79.71          39.27          8.292         -9.688          57.36          73.38          70.05          49.02          72.05
    0.3747              -59.18         0.5289          79.68          39.27          8.282         -9.677          57.39          73.39          70.06          49.07          72.06
    0.3944              -59.17         0.5316          79.66          39.27          8.272         -9.665          57.42          73.39          70.08          49.12          72.08
    0.4141              -59.15         0.5346          79.63          39.27          8.261         -9.652          57.45          73.39           70.1          49.17           72.1
    0.4338              -59.14         0.5379           79.6          39.26          8.249         -9.637          57.49          73.39          70.12          49.24          72.12
    0.4536              -59.13         0.5416          79.57          39.26          8.235         -9.621          57.53           73.4          70.14          49.31          72.14
    0.4733              -59.11         0.5456          79.53          39.25           8.22         -9.603          57.58           73.4          70.17          49.38          72.17
     0.493              -59.09         0.5502          79.49          39.25          8.203         -9.583          57.63          73.41           70.2          49.47           72.2
    0.5127              -59.07         0.5553          79.44          39.24          8.184         -9.561          57.69          73.41          70.23          49.56          72.23
    0.5324              -59.05          0.561          79.39          39.24          8.162         -9.536          57.75          73.42          70.27          49.67          72.27
    0.5522              -59.02         0.5675          79.33          39.23          8.138         -9.508          57.83          73.42          70.31          49.79          72.31
    0.5719               -59.0         0.5748          79.26          39.22          8.111         -9.475          57.91          73.43          70.36          49.93          72.35
    0.5916              -58.96         0.5832          79.18          39.21          8.079         -9.438          58.01          73.44          70.41          50.09          72.41
    0.6113              -58.92         0.5928          79.09           39.2          8.043         -9.396          58.12          73.45          70.47          50.27          72.47
     0.631              -58.88         0.6039          78.99          39.19          8.002         -9.347          58.24          73.46          70.54          50.47          72.54
    0.6507              -58.83         0.6169          78.87          39.18          7.953         -9.291          58.39          73.47          70.62          50.72          72.62
    0.6705              -58.77          0.632          78.73          39.16          7.897         -9.224          58.56          73.48          70.72           51.0          72.72
    0.6902               -58.7         0.6498          78.57          39.15           7.83         -9.146          58.76           73.5          70.83          51.33          72.83
    0.7099              -58.62         0.6709          78.37          39.12          7.751         -9.053           59.0          73.52          70.97          51.73          72.96
    0.7296              -58.52         0.6963          78.14           39.1          7.656         -8.942          59.29          73.54          71.13          52.21          73.12
    0.7493               -58.4          0.727          77.86          39.06          7.541         -8.807          59.64          73.57          71.32          52.78          73.32
    0.7691              -58.25         0.7645          77.51          39.03          7.401         -8.643          60.07           73.6          71.56          53.48          73.55
    0.7888              -58.07         0.8108          77.09          38.98          7.228          -8.44           60.6          73.65          71.86          54.35          73.85
    0.8085              -57.84         0.8685          76.56          38.92          7.012         -8.186          61.25           73.7          72.22          55.43          74.21
    0.8282              -57.55         0.9412          75.89          38.84           6.74         -7.867          62.08          73.77          72.69           56.8          74.67
    0.8479              -57.19          1.034          75.04          38.74          6.394         -7.462          63.13          73.85          73.28          58.53          75.25
    0.8677              -56.72          1.152          73.95          38.62          5.952         -6.942          64.48          73.96          74.03          60.75           76.0
    0.8874              -56.12          1.304          72.55          38.46          5.384         -6.276           66.2           74.1          74.99          63.59          76.96
    0.9071              -55.36          1.498          70.76          38.26          4.659         -5.425          68.41          74.28          76.23          67.22          78.19
    0.9268               -54.4          1.741          68.52           38.0          3.747         -4.355          71.18          74.51          77.78          71.79          79.73
    0.9465              -53.23          2.038          65.78          37.69          2.635         -3.051          74.56          74.78          79.67          77.36           81.6
